<svg width="512" height="512" viewBox="0 0 512 512" fill="none" xmlns="http://www.w3.org/2000/svg" xmlns:xlink="http://www.w3.org/1999/xlink"><rect id="_r_8_" width="512" height="512" x="0" y="0" rx="125" fill="url(#_r_9_)" stroke="#FFFFFF" stroke-width="0" stroke-opacity="100%" paint-order="stroke"></rect><clipPath id="clip"><use xlink:href="#_r_8_"></use></clipPath><defs><radialGradient id="_r_9_" cx="50%" cy="50%" r="100%" fx="50%" fy="50%" gradientUnits="objectBoundingBox"><stop stop-color="#F05A28"></stop><stop offset="1" stop-color="#F05A28"></stop></radialGradient><radialGradient id="_r_a_" cx="0" cy="0" r="1" gradientUnits="userSpaceOnUse" gradientTransform="translate(256) rotate(90) scale(512)"><stop stop-color="white"></stop><stop offset="1" stop-color="white" stop-opacity="0"></stop></radialGradient></defs><svg xmlns="http://www.w3.org/2000/svg" fill="none" viewBox="0 0 16 16" width="380" height="380" x="66" y="66" style="color: rgb(255, 255, 255); width: 352px; height: 352px;" alignment-baseline="middle"><path fill="currentColor" fill-rule="evenodd" d="M6.5 2.5a1 1 0 0 0-.959.714.75.75 0 0 1-1.437-.428A2.5 2.5 0 1 1 6.5 6H2.75a.75.75 0 0 1 0-1.5H6.5a1 1 0 0 0 0-2Zm6 3a1 1 0 0 0-.959.714.75.75 0 1 1-1.437-.428A2.5 2.5 0 1 1 12.5 9H4.75a.75.75 0 0 1 0-1.5h7.75a1 1 0 1 0 0-2ZM2.75 10a.75.75 0 0 0 0 1.5H8.5a1 1 0 1 1-.959 1.286.75.75 0 0 0-1.437.428A2.5 2.5 0 1 0 8.5 10H2.75Z" clip-rule="evenodd"></path></svg></svg>